<svg id="Capa_1" data-name="Capa 1" xmlns="http://www.w3.org/2000/svg" viewBox="0 0 412 512">
  <defs>
    <style>
      .cls-1 {
        fill: #fff;
      }
    </style>
  </defs>
  <title>chenyi</title>
  <g>
    <path class="cls-1" d="M462,512H50V0H462ZM184.34,468.41l.51-.54c-2.91-3.12-6-6.09-8.69-9.4-5.8-7.21-11.77-14.34-17-22-6.45-9.48-12.37-19.33-18.16-29.24-4.05-6.93-7.67-14.12-11.13-21.36-4.09-8.56-8-17.19-11.59-26-4.14-10.23-8-20.57-11.57-31-4.2-12.46-8-25.05-11.73-37.65-2.11-7.09-3.88-14.3-5.61-21.5-2.12-8.81-4.17-17.65-6-26.53q-3.21-15.48-6-31.06c-1.93-11-3.81-22.08-5.26-33.19-1.47-11.27-2.44-22.6-3.52-33.92-.63-6.66-1-13.33-1.58-20-.66-8.15-1.36-16.29-2.07-24.78,10.31,2.23,19.81,4.48,29.39,6.29a155.66,155.66,0,0,0,19.1,2.47,8,8,0,0,0,8.1-4.78,7.36,7.36,0,0,0-1.27-8.14,30.87,30.87,0,0,0-7-5.54c-4.69-2.84-9.58-5.36-14.71-8.19l54.09-38.55a19.16,19.16,0,0,1,.43,2.51q.81,27.56,1.57,55.11c.52,19.61.63,39.24,1.59,58.83,1.09,22,2.72,44,4.52,65.94,1.43,17.51,3.3,35,5.32,52.43,1.76,15.22,3.84,30.41,6.07,45.57,1.74,11.85,3.83,23.66,5.95,35.46,1.67,9.26,3.53,18.5,5.47,27.71,1.86,8.77,3.86,17.51,5.94,26.24s4.32,17.4,6.48,26.1c1.23,5,2.41,10,3.65,14.92.26,1,.66,2,1,3l1.16-.43a49.16,49.16,0,0,1-1.64-5c-2.06-9.41-4.15-18.82-6-28.28-2.12-10.78-4.17-21.57-5.94-32.41-2.19-13.49-4.35-27-6-40.54-2.38-19.44-4.6-38.9-6.3-58.4-2-23.07-3.61-46.17-4.95-69.29-.93-16-1.1-32.09-1.6-48.13-.05-1.42,0-2.85,0-4.27,3.41,7.3,6.15,14.6,9.19,21.77,3.57,8.42,7.25,16.79,11.15,25.06,4.33,9.18,8.78,18.32,13.54,27.28,5,9.52,10.53,18.8,15.83,28.18,2.88,5.11,5.67,10.27,8.7,15.28,2.73,4.51,5.67,8.9,8.64,13.26,2.47,3.62,2.14,5.59-.15,9.55-4.79,8.28-10.21,16.41-13.38,25.32-3.08,8.66-4.54,18.16-5.15,27.39a220.72,220.72,0,0,0,.79,39.63c2.75,24,4.27,48.1,6.28,72.17.56,6.67,1,13.34,1.53,20,.25,3.09.56,6.17.83,9.25.7-6.6.59-13.16.72-19.71.77-38.29-1.93-76.63,2.23-114.87,1.42-13.1,2.63-26.1,9.77-37.64,4.63-7.48,9.29-14.93,13.87-22.44,6-9.78,12-19.52,17.75-29.44,5.87-10.11,11.61-20.3,17-30.66,4.34-8.29,8.27-16.82,12.11-25.37,3.93-8.76,7.75-17.58,11.21-26.54,4.28-11.11,8.23-22.36,12.15-33.62,2.1-6,3.93-12.19,5.74-18.34,2-6.89,4.12-13.78,5.8-20.77,2.6-10.88,4.88-21.85,7.29-32.78l.51-2.26a14.65,14.65,0,0,1,.22,5q-1.83,16.71-3.75,33.43c-2,17.34-3.93,34.68-6.09,52-1.59,12.66-3.43,25.3-5.3,37.92q-2.88,19.42-6.08,38.81c-1.86,11.16-3.89,22.28-6,33.39q-3,15.68-6.21,31.29c-1.6,7.68-3.41,15.33-5.2,23-2.22,9.48-4.45,19-6.82,28.42-1.59,6.32-3.33,12.59-5.15,18.85q-5.93,20.37-12,40.69c-1.92,6.43-4,12.83-6.05,19.58-5.25-1.64-11.43.34-13.63-6.57a4.88,4.88,0,0,0-2.06-2.12A18.17,18.17,0,0,0,241,443.06c-5.09,2.34-8.47,10.27-6,14.5a15.28,15.28,0,0,0,14.3,8c6-.2,11.37-2.07,13.88-8.4.22-.56.75-1.28,1.24-1.38,3.15-.63,6.34-1.09,9.5-1.66.67-.12,1.7-.34,1.88-.79,2.57-6.37,5.12-12.75,7.48-19.2q5.81-15.87,11.35-31.82c2.1-6.05,4.05-12.16,5.91-18.29,3.84-12.69,7.65-25.4,11.34-38.14,2.12-7.34,4.07-14.72,5.95-22.12q3.31-13,6.38-26.13,2.9-12.27,5.57-24.59c1.86-8.55,3.68-17.1,5.38-25.68,2.06-10.44,4.08-20.89,5.93-31.37,2.13-12,4.11-24.07,6-36.13,1.85-11.62,3.71-23.24,5.25-34.9q3.27-25,6-50c1.56-13.85,2.78-27.73,4.25-41.59.34-3.14,1.11-6.24,1.77-9.83l50,43.53c-1.32.59-2.65,1.11-3.91,1.76-5.71,2.91-11.65,5.48-17,8.92a7.58,7.58,0,0,0,.71,13.1A16,16,0,0,0,403,112.5c9.59-1.16,19.1-3,28.66-4.4,4.78-.7,9.61-1,14.74-1.6a63.91,63.91,0,0,1-.05,7.43c-.34,2.6-1.18,5.13-1.7,7.71-2.11,10.55-4.09,21.12-6.29,31.65-1.83,8.79-3.83,17.54-5.88,26.28-1.67,7.1-3.46,14.18-5.3,21.24-2,7.6-3.91,15.22-6.15,22.75-3.63,12.27-7.3,24.54-11.32,36.69-3.78,11.42-7.85,22.74-12.11,34-3.6,9.5-7.5,18.88-11.54,28.2q-5.72,13.19-12,26.12c-3.62,7.43-7.5,14.74-11.49,22-3.84,7-7.76,13.88-12,20.58-5.56,8.72-11.21,17.41-17.35,25.73-6.61,9-13.75,17.52-20.8,26.15-2.07,2.53-4.66,4.63-6.93,7-4.21,4.4-8.36,8.85-12.32,13.06a8.22,8.22,0,0,0,1.76-1c6-5.41,12.17-10.59,17.76-16.37,7.91-8.15,15.78-16.41,22.88-25.26,8.27-10.3,16-21.11,23.39-32.05,6.13-9,11.85-18.34,17.15-27.86,6.53-11.75,12.56-23.78,18.57-35.81q5.68-11.38,10.65-23.12c4.37-10.26,8.43-20.65,12.57-31,1.67-4.19,3.31-8.4,4.77-12.67,4-11.59,7.91-23.19,11.71-34.84,2.05-6.3,3.86-12.68,5.67-19,2.08-7.35,4.16-14.69,6-22.1,2.12-8.47,4.06-17,5.93-25.53s3.75-17.33,5.33-26c1.43-7.88,2.58-15.81,3.64-23.76,1.45-10.86-1.56-13.74-12.52-12.57-5.22.55-10.46.86-16.5,1.34,4.85-2.9,6.64-6.15,5.94-10.26-.66-3.9-3.08-6-6.83-7.35-3.58-1.25-7.34-2.69-10.26-5C408.7,63.08,396.93,53.05,385,43.21c-6.47-5.35-12.87-10.8-19.56-15.87a9.4,9.4,0,0,0-15,5.66c-1.46,7.49-3.34,14.9-5.15,22.31s-3.6,14.59-5.56,21.85c-2.08,7.68-4.29,15.32-6.53,23-1.52,5.18-3.16,10.33-4.84,15.46-2.31,7-4.56,14.1-7.09,21.06-3.52,9.64-7.14,19.25-11,28.77-4.16,10.34-8.57,20.58-13,30.83-2.88,6.72-5.69,13.47-8.91,20-4.71,9.58-9.75,19-14.67,28.46q-4,7.8-8.2,15.54c-.15.28-.66.37-1.34.71V107.65c-1.33,27.62-2.23,55.26-3.32,82.88-.68,17.23-1.71,34.45-2.44,51.67-.4,9.58-.48,19.17-.8,28.75a10.1,10.1,0,0,1-1.06,4.42c-4,7.33-8.22,14.59-12.4,21.85-1.28,2.2-2.73,4.3-4.28,6.73-4.05-8.53-8-16.52-11.66-24.64-3-6.55-5.6-13.25-8.43-19.86-.56-1.29-1.51-2.43-1.95-3.75-1.24-3.66-3.41-7.41-3.28-11.07,1.2-34.95,2.81-69.89,4.28-104.83q.27-6.51.38-13a8.74,8.74,0,0,0-.44-2.1l-.71.12q-4.53,53.27-9.07,106.53a187.79,187.79,0,0,1-9-20.28c-4.21-11.52-8.17-23.12-12-34.76-2.19-6.6-4.09-13.3-6-20s-3.76-13.43-5.22-20.23c-2.17-10.08-4.72-20.17-5.73-30.38-1.45-14.61-1.77-29.34-2.36-44-.35-8.57-.51-17.16-.36-25.73.14-7.85-9.37-13.15-16.43-8-4.54,3.34-9.42,6.23-14.1,9.38-13.4,9-26.73,18.11-40.19,27-4.77,3.15-9.91,5.75-14.78,8.76-3.3,2-6,4.91-5.66,9,.16,2.31,1.65,4.52,2.64,7-1.16-.16-2.24-.33-3.32-.47-6.27-.82-12.53-1.89-18.83-2.35C53,86,51.05,88.1,50.8,92.85a34.77,34.77,0,0,0,0,3.68c1.06,19.87,1.24,39.8,5.05,59.46,2.21,11.42,3.52,23,5.5,34.49,1.83,10.59,3.9,21.15,6.09,31.68,1.81,8.66,3.88,17.28,6,25.88,1.66,6.77,3.46,13.5,5.34,20.21q3,10.88,6.37,21.66c1.84,6,3.71,12,5.83,18,3.72,10.38,7.45,20.76,11.54,31,3.68,9.21,7.68,18.31,11.86,27.31C118,374,122,381.61,126,389.18c3.76,7,7.63,13.91,11.9,20.58,5.57,8.72,11.25,17.41,17.49,25.65,6.58,8.71,13.79,17,20.89,25.26C178.72,463.48,181.65,465.84,184.34,468.41ZM240.81,73l-.36,1.82c-2.18,0-4.62.65-6.49-.11-10.56-4.3-20.88-9.21-31.5-13.34a77.58,77.58,0,0,0-15.8-3.77A7.1,7.1,0,0,0,179,61.3c-1.46,2.74-.43,5.33,1.45,7.38,5.34,5.81,3.94,12.63,2.88,19.26-1.21,7.54-3.33,14.94-4.36,22.49-1.13,8.35,3.94,12.72,12,10.26A121.13,121.13,0,0,0,210,113c6.4-3.22,12.37-7.32,18.53-11l8.24-5c7.22,7.84,12,8.87,20.41,2.51.72-.54,2.52-.33,3.44.2,8.32,4.82,16.39,10.14,24.9,14.59a71.25,71.25,0,0,0,17.39,6.49c8.16,1.79,12.44-1.43,11.56-10-.11-1.11-.21-2.22-.42-3.31-1.53-8-3.21-16.06-4.59-24.13-.94-5.5-.46-10.8,3.47-15.32a12.56,12.56,0,0,0,2.3-4c1.22-3.57-.62-6.29-4.39-6.47-2.32-.11-4.82-.34-7,.35-10.65,3.42-21.19,7.2-31.82,10.71-4.67,1.54-8.74,5.93-14.52,3.28,2.17-1,4.23-2.06,6.3-3,18.29-8.61,34.1-20.77,48.5-34.75,6.87-6.67,12.94-14.18,19.21-21.44,1.63-1.88,3.26-2.32,5.23-1.21a65.92,65.92,0,0,1,7.24,4.64c2.65,2,5.11,4.24,7.65,6.37l.92-.72C349.34,16.47,346.39,11,342.71,6,338.35.11,333-.8,327.71,2.79A242.69,242.69,0,0,0,292.45,32.3c-8.8,8.83-17.07,18.2-26,26.91-5.06,5-11,9.07-16.4,13.52-22-22.07-49.44-32.13-76.81-42.33C190.48,52.9,213.75,65.91,240.81,73ZM275,357.79l0-.78c-3.09-.57-6.19-1.05-9.24-1.77a4.22,4.22,0,0,1-2.54-1.63c-3.84-6.68-9.94-9.61-17.53-8.17a14.13,14.13,0,0,0-11,8.58c-1.71,4.13-.06,7.82,3,11.14,6.16,6.77,21.73,5.75,25.35-3.45a4.46,4.46,0,0,1,2.77-2.14C268.83,358.79,272,358.36,275,357.79Z" transform="translate(-50)"/>
    <path d="M184.34,468.41c-2.69-2.57-5.62-4.93-8-7.74-7.1-8.3-14.31-16.55-20.89-25.26-6.24-8.24-11.92-16.93-17.49-25.65-4.27-6.67-8.14-13.6-11.9-20.58-4.08-7.57-8-15.22-11.64-23-4.18-9-8.18-18.1-11.86-27.31-4.09-10.24-7.82-20.62-11.54-31-2.12-5.93-4-11.94-5.83-18q-3.31-10.8-6.37-21.66c-1.88-6.71-3.68-13.44-5.34-20.21-2.1-8.6-4.17-17.22-6-25.88-2.19-10.53-4.26-21.09-6.09-31.68-2-11.47-3.29-23.07-5.5-34.49-3.81-19.66-4-39.59-5.05-59.46a34.77,34.77,0,0,1,0-3.68C51.05,88.1,53,86,57.71,86.33c6.3.46,12.56,1.53,18.83,2.35,1.08.14,2.16.31,3.32.47-1-2.49-2.48-4.7-2.64-7-.3-4.12,2.36-7,5.66-9,4.87-3,10-5.61,14.78-8.76,13.46-8.91,26.79-18,40.19-27,4.68-3.15,9.56-6,14.1-9.38,7.06-5.19,16.57.11,16.43,8-.15,8.57,0,17.16.36,25.73.59,14.69.91,29.42,2.36,44,1,10.21,3.56,20.3,5.73,30.38,1.46,6.8,3.36,13.52,5.22,20.23s3.77,13.4,6,20c3.87,11.64,7.83,23.24,12,34.76a187.79,187.79,0,0,0,9,20.28q4.53-53.26,9.07-106.53l.71-.12a8.74,8.74,0,0,1,.44,2.1q-.12,6.51-.38,13c-1.47,34.94-3.08,69.88-4.28,104.83-.13,3.66,2,7.41,3.28,11.07.44,1.32,1.39,2.46,1.95,3.75,2.83,6.61,5.46,13.31,8.43,19.86,3.68,8.12,7.61,16.11,11.66,24.64,1.55-2.43,3-4.53,4.28-6.73,4.18-7.26,8.36-14.52,12.4-21.85a10.1,10.1,0,0,0,1.06-4.42c.32-9.58.4-19.17.8-28.75.73-17.22,1.76-34.44,2.44-51.67,1.09-27.62,2-55.26,3.32-82.88V261c.68-.34,1.19-.43,1.34-.71q4.14-7.74,8.2-15.54c4.92-9.47,10-18.88,14.67-28.46,3.22-6.54,6-13.29,8.91-20,4.39-10.25,8.8-20.49,13-30.83,3.83-9.52,7.45-19.13,11-28.77,2.53-7,4.78-14,7.09-21.06,1.68-5.13,3.32-10.28,4.84-15.46,2.24-7.63,4.45-15.27,6.53-23,2-7.26,3.79-14.55,5.56-21.85S349,40.49,350.42,33a9.4,9.4,0,0,1,15-5.66c6.69,5.07,13.09,10.52,19.56,15.87,11.92,9.84,23.69,19.87,35.77,29.51,2.92,2.33,6.68,3.77,10.26,5,3.75,1.3,6.17,3.45,6.83,7.35.7,4.11-1.09,7.36-5.94,10.26,6-.48,11.28-.79,16.5-1.34,11-1.17,14,1.71,12.52,12.57-1.06,8-2.21,15.88-3.64,23.76-1.58,8.72-3.44,17.39-5.33,26s-3.81,17.06-5.93,25.53c-1.85,7.41-3.93,14.75-6,22.1-1.81,6.37-3.62,12.75-5.67,19-3.8,11.65-7.74,23.25-11.71,34.84-1.46,4.27-3.1,8.48-4.77,12.67-4.14,10.35-8.2,20.74-12.57,31q-5,11.71-10.65,23.12c-6,12-12,24.06-18.57,35.81-5.3,9.52-11,18.85-17.15,27.86-7.43,10.94-15.12,21.75-23.39,32.05-7.1,8.85-15,17.11-22.88,25.26-5.59,5.78-11.8,11-17.76,16.37a8.22,8.22,0,0,1-1.76,1c4-4.21,8.11-8.66,12.32-13.06,2.27-2.38,4.86-4.48,6.93-7,7-8.63,14.19-17.19,20.8-26.15,6.14-8.32,11.79-17,17.35-25.73,4.26-6.7,8.18-13.62,12-20.58,4-7.24,7.87-14.55,11.49-22q6.3-12.92,12-26.12c4-9.32,7.94-18.7,11.54-28.2,4.26-11.25,8.33-22.57,12.11-34,4-12.15,7.69-24.42,11.32-36.69,2.24-7.53,4.18-15.15,6.15-22.75,1.84-7.06,3.63-14.14,5.3-21.24,2.05-8.74,4.05-17.49,5.88-26.28,2.2-10.53,4.18-21.1,6.29-31.65.52-2.58,1.36-5.11,1.7-7.71a63.91,63.91,0,0,0,.05-7.43c-5.13.55-10,.9-14.74,1.6-9.56,1.41-19.07,3.24-28.66,4.4a16,16,0,0,1-8.88-1.62,7.58,7.58,0,0,1-.71-13.1c5.37-3.44,11.31-6,17-8.92,1.26-.65,2.59-1.17,3.91-1.76l-50-43.53c-.66,3.59-1.43,6.69-1.77,9.83C361.18,67.26,360,81.14,358.4,95q-2.81,25-6,50c-1.54,11.66-3.4,23.28-5.25,34.9-1.92,12.06-3.9,24.11-6,36.13-1.85,10.48-3.87,20.93-5.93,31.37-1.7,8.58-3.52,17.13-5.38,25.68q-2.68,12.32-5.57,24.59-3.07,13.09-6.38,26.13c-1.88,7.4-3.83,14.78-5.95,22.12-3.69,12.74-7.5,25.45-11.34,38.14-1.86,6.13-3.81,12.24-5.91,18.29q-5.55,15.94-11.35,31.82c-2.36,6.45-4.91,12.83-7.48,19.2-.18.45-1.21.67-1.88.79-3.16.57-6.35,1-9.5,1.66-.49.1-1,.82-1.24,1.38-2.51,6.33-7.86,8.2-13.88,8.4a15.28,15.28,0,0,1-14.3-8c-2.49-4.23.89-12.16,6-14.5a18.17,18.17,0,0,1,18.38,1.22,4.88,4.88,0,0,1,2.06,2.12c2.2,6.91,8.38,4.93,13.63,6.57,2.09-6.75,4.13-13.15,6.05-19.58q6-20.33,12-40.69c1.82-6.26,3.56-12.53,5.15-18.85,2.37-9.45,4.6-18.94,6.82-28.42,1.79-7.64,3.6-15.29,5.2-23q3.25-15.61,6.21-31.29c2.09-11.11,4.12-22.23,6-33.39q3.22-19.36,6.08-38.81c1.87-12.62,3.71-25.26,5.3-37.92,2.16-17.31,4.1-34.65,6.09-52q1.94-16.71,3.75-33.43a14.65,14.65,0,0,0-.22-5l-.51,2.26c-2.41,10.93-4.69,21.9-7.29,32.78-1.68,7-3.77,13.88-5.8,20.77-1.81,6.15-3.64,12.3-5.74,18.34-3.92,11.26-7.87,22.51-12.15,33.62-3.46,9-7.28,17.78-11.21,26.54-3.84,8.55-7.77,17.08-12.11,25.37-5.42,10.36-11.16,20.55-17,30.66-5.74,9.92-11.79,19.66-17.75,29.44-4.58,7.51-9.24,15-13.87,22.44-7.14,11.54-8.35,24.54-9.77,37.64C226,408.68,228.74,447,228,485.31c-.13,6.55,0,13.11-.72,19.71-.27-3.08-.58-6.16-.83-9.25-.52-6.67-1-13.34-1.53-20-2-24.07-3.53-48.19-6.28-72.17a220.72,220.72,0,0,1-.79-39.63c.61-9.23,2.07-18.73,5.15-27.39,3.17-8.91,8.59-17,13.38-25.32,2.29-4,2.62-5.93.15-9.55-3-4.36-5.91-8.75-8.64-13.26-3-5-5.82-10.17-8.7-15.28-5.3-9.38-10.78-18.66-15.83-28.18-4.76-9-9.21-18.1-13.54-27.28-3.9-8.27-7.58-16.64-11.15-25.06-3-7.17-5.78-14.47-9.19-21.77,0,1.42,0,2.85,0,4.27.5,16,.67,32.11,1.6,48.13,1.34,23.12,2.94,46.22,4.95,69.29,1.7,19.5,3.92,39,6.3,58.4,1.65,13.55,3.81,27.05,6,40.54,1.77,10.84,3.82,21.63,5.94,32.41,1.85,9.46,3.94,18.87,6,28.28a49.16,49.16,0,0,0,1.64,5l-1.16.43c-.34-1-.74-2-1-3-1.24-5-2.42-9.95-3.65-14.92-2.16-8.7-4.41-17.38-6.48-26.1s-4.08-17.47-5.94-26.24c-1.94-9.21-3.8-18.45-5.47-27.71-2.12-11.8-4.21-23.61-5.95-35.46-2.23-15.16-4.31-30.35-6.07-45.57-2-17.45-3.89-34.92-5.32-52.43-1.8-21.95-3.43-43.94-4.52-65.94-1-19.59-1.07-39.22-1.59-58.83q-.74-27.56-1.57-55.11a19.16,19.16,0,0,0-.43-2.51L98.65,82.36c5.13,2.83,10,5.35,14.71,8.19a30.87,30.87,0,0,1,7,5.54,7.36,7.36,0,0,1,1.27,8.14,8,8,0,0,1-8.1,4.78,155.66,155.66,0,0,1-19.1-2.47c-9.58-1.81-19.08-4.06-29.39-6.29.71,8.49,1.41,16.63,2.07,24.78.54,6.67,1,13.34,1.58,20,1.08,11.32,2,22.65,3.52,33.92,1.45,11.11,3.33,22.16,5.26,33.19q2.73,15.59,6,31.06c1.84,8.88,3.89,17.72,6,26.53,1.73,7.2,3.5,14.41,5.61,21.5,3.74,12.6,7.53,25.19,11.73,37.65,3.52,10.46,7.43,20.8,11.57,31,3.55,8.79,7.5,17.42,11.59,26,3.46,7.24,7.08,14.43,11.13,21.36,5.79,9.91,11.71,19.76,18.16,29.24,5.2,7.64,11.17,14.77,17,22,2.68,3.31,5.78,6.28,8.69,9.4Zm70.27-22.62c-3.52.06-6.31,2.2-6.17,4.74s3,4.42,6.55,4.32c3.71-.1,6.36-2,6.34-4.52S258.3,445.72,254.61,445.79Z" transform="translate(-50)"/>
    <path d="M240.81,73c-27.06-7.11-50.33-20.12-67.55-42.62,27.37,10.2,54.82,20.26,76.81,42.33,5.45-4.45,11.34-8.56,16.4-13.52,8.91-8.71,17.18-18.08,26-26.91A242.69,242.69,0,0,1,327.71,2.79C333-.8,338.35.11,342.71,6c3.68,5,6.63,10.49,9.91,15.77l-.92.72c-2.54-2.13-5-4.39-7.65-6.37a65.92,65.92,0,0,0-7.24-4.64c-2-1.11-3.6-.67-5.23,1.21-6.27,7.26-12.34,14.77-19.21,21.44-14.4,14-30.21,26.14-48.5,34.75-2.07,1-4.13,2-6.3,3,5.78,2.65,9.85-1.74,14.52-3.28,10.63-3.51,21.17-7.29,31.82-10.71,2.14-.69,4.64-.46,7-.35,3.77.18,5.61,2.9,4.39,6.47a12.56,12.56,0,0,1-2.3,4c-3.93,4.52-4.41,9.82-3.47,15.32,1.38,8.07,3.06,16.09,4.59,24.13.21,1.09.31,2.2.42,3.31.88,8.55-3.4,11.77-11.56,10a71.25,71.25,0,0,1-17.39-6.49c-8.51-4.45-16.58-9.77-24.9-14.59-.92-.53-2.72-.74-3.44-.2-8.42,6.36-13.19,5.33-20.41-2.51l-8.24,5c-6.16,3.71-12.13,7.81-18.53,11a121.13,121.13,0,0,1-19,7.69c-8.07,2.46-13.14-1.91-12-10.26,1-7.55,3.15-15,4.36-22.49,1.06-6.63,2.46-13.45-2.88-19.26-1.88-2.05-2.91-4.64-1.45-7.38a7.1,7.1,0,0,1,7.65-3.68,77.58,77.58,0,0,1,15.8,3.77c10.62,4.13,20.94,9,31.5,13.34,1.87.76,4.31.11,6.49.11Zm-9.62,6.86c2.8,3.58,5.49,7.19,8.36,10.65,2.11,2.53,5.32,3.71,8,2.28,2.5-1.3,4.29-4.09,6.14-6.43.34-.43-.4-2-1-2.8-3.57-5.32-9.19-7-14.88-6.27-6.23.84-11.47-1.2-17-3q-11.69-3.87-23.56-7.13c-4.76-1.31-5.71-.12-4.34,4.63a34.61,34.61,0,0,1,1.36,4.46c.52,3.41,1.53,7,1.05,10.27-.91,6.2-2.82,12.25-4.16,18.4-1,4.6.16,5.77,4.72,5.13a14.62,14.62,0,0,0,2.9-.71c4.48-1.6,9-3.09,13.41-4.91,6.84-2.84,13.61-5.87,20.35-9,.73-.34,1.69-1.94,1.48-2.29a4.49,4.49,0,0,0-2.67-2.07,21.53,21.53,0,0,0-5,.35l-11.44,1,0-.55,17.32-3,0-.95L221,86.11l.06-.41h10.77C231.59,83.65,231.4,81.79,231.19,79.88ZM261.44,96.3c8.94,3.79,17.65,7.63,26.47,11.16a96.3,96.3,0,0,0,13.25,4.23c2.92.71,4-.52,3.37-3.48a60,60,0,0,0-3-9.86c-2.36-5.73-5.21-11.36-4.38-17.77.59-4.51,1.76-8.94,2.73-13.74a12.73,12.73,0,0,0-3.63,0q-13.47,3.6-26.87,7.47a2.77,2.77,0,0,0-1.61,1.81c-.77,4.56-1.38,9.15-2.08,14l24.68,9c-7.67-1.74-15.18-4-22.65-6.28C263.5,91.61,263.52,91.53,261.44,96.3Z" transform="translate(-50)"/>
    <path d="M275,357.79c-3.09.57-6.21,1-9.24,1.78a4.46,4.46,0,0,0-2.77,2.14c-3.62,9.2-19.19,10.22-25.35,3.45-3-3.32-4.66-7-3-11.14a14.13,14.13,0,0,1,11-8.58c7.59-1.44,13.69,1.49,17.53,8.17a4.22,4.22,0,0,0,2.54,1.63c3.05.72,6.15,1.2,9.24,1.77Zm-20.78,1c4,.15,7-1.69,7.07-4.41s-2.77-4.59-6.95-4.47c-3.46.1-6,2-5.95,4.53C248.5,356.78,251.05,358.68,254.26,358.81Z" transform="translate(-50)"/>
    <path class="cls-1" d="M254.61,445.79c3.69-.07,6.7,2,6.72,4.54s-2.63,4.42-6.34,4.52c-3.52.1-6.42-1.82-6.55-4.32S251.09,445.85,254.61,445.79Z" transform="translate(-50)"/>
    <path class="cls-1" d="M231.19,79.88c.21,1.91.4,3.77.62,5.82H221l-.06.41,11.28,1.79,0,.95-17.32,3,0,.55,11.44-1a21.53,21.53,0,0,1,5-.35,4.49,4.49,0,0,1,2.67,2.07c.21.35-.75,2-1.48,2.29-6.74,3.09-13.51,6.12-20.35,9-4.4,1.82-8.93,3.31-13.41,4.91a14.62,14.62,0,0,1-2.9.71c-4.56.64-5.72-.53-4.72-5.13,1.34-6.15,3.25-12.2,4.16-18.4.48-3.3-.53-6.86-1.05-10.27A34.61,34.61,0,0,0,193,71.77c-1.37-4.75-.42-5.94,4.34-4.63q11.86,3.26,23.56,7.13c5.55,1.84,10.79,3.88,17,3,5.69-.76,11.31,1,14.88,6.27.55.82,1.29,2.37,1,2.8-1.85,2.34-3.64,5.13-6.14,6.43-2.73,1.43-5.94.25-8-2.28C236.68,87.07,234,83.46,231.19,79.88Z" transform="translate(-50)"/>
    <path class="cls-1" d="M261.44,96.3c2.08-4.77,2.06-4.69,6.27-3.38,7.47,2.32,15,4.54,22.65,6.28l-24.68-9c.7-4.87,1.31-9.46,2.08-14a2.77,2.77,0,0,1,1.61-1.81q13.39-3.85,26.87-7.47a12.73,12.73,0,0,1,3.63,0c-1,4.8-2.14,9.23-2.73,13.74-.83,6.41,2,12,4.38,17.77a60,60,0,0,1,3,9.86c.65,3-.45,4.19-3.37,3.48a96.3,96.3,0,0,1-13.25-4.23C279.09,103.93,270.38,100.09,261.44,96.3Z" transform="translate(-50)"/>
    <path class="cls-1" d="M254.26,358.81c-3.21-.13-5.76-2-5.83-4.35-.07-2.49,2.49-4.43,5.95-4.53,4.18-.12,7,1.71,6.95,4.47S258.29,359,254.26,358.81Z" transform="translate(-50)"/>
  </g>
</svg>
