<svg id="Capa_1" data-name="Capa 1" xmlns="http://www.w3.org/2000/svg" viewBox="0 0 512 512">
  <defs>
    <style>
      .cls-1 {
        fill: #fff;
      }
    </style>
  </defs>
  <title>dinzhi</title>
  <g>
    <path class="cls-1" d="M0,0H512V512H0ZM27.88,388v-.15c6.17-.37,12.34-.77,18.52-1.09,35.13-1.8,70.27-3.52,105.39-5.42,5.48-.3,11.59-.06,16.24-2.4,11.75-5.9,22.6-13.57,34.23-19.75Q256.64,330.26,311.37,302c25.37-13.07,51.3-25.07,76.52-38.4,27.67-14.63,54.8-30.27,82.2-45.41,9-4.95,18.39-9.37,21.37-20.47,5.52-20.54,5.37-40.4-6.74-59C473.19,121,447.08,112,427.77,120c-26,10.71-52.07,21.16-77.52,33-38.39,17.88-76.39,36.6-114.31,55.45-39.47,19.61-78.65,39.78-117.9,59.82a22.78,22.78,0,0,0-6.12,5.29c-9.8,10.95-19.49,22-29.23,33-21.43,24.21-42.92,48.35-64.18,72.7-1.55,1.78-1.47,5-2.14,7.52,2.13.39,4.25.9,6.4,1.14A45.79,45.79,0,0,0,27.88,388Z"/>
    <path d="M27.88,388a45.79,45.79,0,0,1-5.11,0c-2.15-.24-4.27-.75-6.4-1.14.67-2.54.59-5.74,2.14-7.52,21.26-24.35,42.75-48.49,64.18-72.7,9.74-11,19.43-22.07,29.23-33a22.78,22.78,0,0,1,6.12-5.29c39.25-20,78.43-40.21,117.9-59.82,37.92-18.85,75.92-37.57,114.31-55.45,25.45-11.84,51.55-22.29,77.52-33,19.31-7.95,45.42,1,57,18.73,12.11,18.6,12.26,38.46,6.74,59-3,11.1-12.41,15.52-21.37,20.47-27.4,15.14-54.53,30.78-82.2,45.41-25.22,13.33-51.15,25.33-76.52,38.4q-54.76,28.2-109.11,57.16C190.63,365.34,179.78,373,168,378.91c-4.65,2.34-10.76,2.1-16.24,2.4-35.12,1.9-70.26,3.62-105.39,5.42-6.18.32-12.35.72-18.52,1.09ZM172,370.66c6.65-4,11.68-7.41,17-10.23,39.49-20.94,78.94-41.93,118.59-62.56,34.93-18.19,70.06-36,105.2-53.8,9.45-4.79,14.22-12.23,15.49-22.59,3.21-26.11-8.26-46.61-25.83-63.85-7.9-7.75-19.15-12.56-30.64-7.87-19.11,7.81-37.92,16.42-56.53,25.36-31.47,15.13-62.74,30.64-94,46.24-25.52,12.75-50.88,25.82-76.27,38.83-8.08,4.14-16,8.56-24.74,13.25l35.6,17.09-16.93,35.55c3.42,1,5.82,1.72,8.21,2.48,8.68,2.75,17.3,5.67,26,8.2,4,1.16,4.77,3.16,3.9,7.06C175.25,352.06,173.89,360.41,172,370.66ZM45.05,355.47c8,6.3,14.87,11.81,15.15,22.08,0,1,3.28,2.78,5,2.73,7.87-.23,15.72-1.06,23.59-1.54q34.44-2.13,68.9-4.11c4.61-.26,7.47-1.72,8.26-6.81,1.13-7.36,2.79-14.64,4.43-21.91.76-3.42-.4-5.22-3.66-6.15q-9.53-2.75-19-5.72c-5.5-1.75-11-3.67-16.48-5.53,5.48-11.42,10.38-21.78,15.42-32.06,1.53-3.13.91-5.23-2.18-6.73-6.67-3.25-13.29-6.62-20-9.78-5.29-2.5-9.55-1.12-13.53,3.23C100,295.11,88.67,306.65,77.75,318.6S56,343.06,45.05,355.47ZM433.46,231.66A11.73,11.73,0,0,0,436,231q16.39-9.26,32.74-18.6c7.62-4.37,16-8.56,16.95-18.51,1.14-11.55,2.74-23.38,1.43-34.78-3-26.18-31.08-42.7-55.58-33.84-5.39,2-10.72,4.07-16,6.25-9.14,3.74-18.24,7.59-27.63,11.51C424.9,162.13,437.78,192.32,433.46,231.66ZM23.11,381.36l1.36,1.57c8.43-.49,16.86-1,25.3-1.5.82-.05,1.93-.08,2.4-.59,4.29-4.66,1.12-8.79-1.43-12.55-2.44-3.59-5.25-10.28-10.25-6.38C33.74,367.17,28.82,374.77,23.11,381.36Z"/>
    <path class="cls-1" d="M172,370.66c1.93-10.25,3.29-18.6,5.13-26.84.87-3.9.13-5.9-3.9-7.06-8.74-2.53-17.36-5.45-26-8.2-2.39-.76-4.79-1.45-8.21-2.48l16.93-35.55-35.6-17.09c8.73-4.69,16.66-9.11,24.74-13.25,25.39-13,50.75-26.08,76.27-38.83,31.23-15.6,62.5-31.11,94-46.24,18.61-8.94,37.42-17.55,56.53-25.36,11.49-4.69,22.74.12,30.64,7.87,17.57,17.24,29,37.74,25.83,63.85-1.27,10.36-6,17.8-15.49,22.59-35.14,17.8-70.27,35.61-105.2,53.8-39.65,20.63-79.1,41.62-118.59,62.56C183.64,363.25,178.61,366.64,172,370.66Z"/>
    <path class="cls-1" d="M45.05,355.47c11-12.41,21.68-24.8,32.7-36.87S100,295.11,111,283.17c4-4.35,8.24-5.73,13.53-3.23,6.72,3.16,13.34,6.53,20,9.78,3.09,1.5,3.71,3.6,2.18,6.73-5,10.28-9.94,20.64-15.42,32.06,5.52,1.86,11,3.78,16.48,5.53q9.45,3,19,5.72c3.26.93,4.42,2.73,3.66,6.15-1.64,7.27-3.3,14.55-4.43,21.91-.79,5.09-3.65,6.55-8.26,6.81q-34.45,1.92-68.9,4.11c-7.87.48-15.72,1.31-23.59,1.54-1.71.05-5-1.73-5-2.73C59.92,367.28,53,361.77,45.05,355.47Z"/>
    <path class="cls-1" d="M433.46,231.66c4.32-39.34-8.56-69.53-45.57-88.67,9.39-3.92,18.49-7.77,27.63-11.51,5.3-2.18,10.63-4.3,16-6.25,24.5-8.86,52.57,7.66,55.58,33.84,1.31,11.4-.29,23.23-1.43,34.78-1,10-9.33,14.14-16.95,18.51Q452.41,221.72,436,231A11.73,11.73,0,0,1,433.46,231.66Z"/>
    <path class="cls-1" d="M23.11,381.36c5.71-6.59,10.63-14.19,17.38-19.45,5-3.9,7.81,2.79,10.25,6.38,2.55,3.76,5.72,7.89,1.43,12.55-.47.51-1.58.54-2.4.59-8.44.53-16.87,1-25.3,1.5Z"/>
  </g>
</svg>
