<?xml version="1.0" encoding="utf-8"?>
<!-- Generator: Adobe Illustrator 24.0.1, SVG Export Plug-In . SVG Version: 6.00 Build 0)  -->
<svg version="1.1" xmlns="http://www.w3.org/2000/svg" xmlns:xlink="http://www.w3.org/1999/xlink" x="0px" y="0px"
	 viewBox="0 0 512 512" style="enable-background:new 0 0 512 512;" xml:space="preserve">
<style type="text/css">
	.st0{fill:#2CCE24;stroke:#231815;stroke-miterlimit:10;}
</style>
<g id="Capa_1">
	<path class="st0" d="M376.8,151.8c0,0-3-16.4,11.4-14.2c14.4,2.2,8,22,8,22s4.7,12.7,12.7,20.6c8,7.8,12.3,30.3,12.3,30.3
		l-13.1,23.2c0,0,13.1,22-16.1,17.6l-2.1,4.9l5.5,16.4c0,0,6.3,6.7-11.4,37.7l6.3-3.4v4.9l-5.5,6l-2.1,11.6c0,0,18.6,14.9-1.7,18.7
		c0,0,1.7,36.6-36,13.5l-6.8,11.2c0,0,1.7,9.7-19,9.7c0,0-48.7,2.6-60.1-2.2v-9.7c0,0-30.9,8.6,15.7,26.5c0,0,11,16.8-30,8.2
		c0,0-13.5,6.7-16.5,15.7c-3,9-14,7.1-14,7.1l-13.1-7.5l-4.7-16.4c0,0,6.3-16.1,13.5-15.3s-25.8-16.1-40.2-7.1
		c-14.4,9-33,15.7-58,14.2c0,0-10.6,0-11.8,11.6c0,0-0.4,10.1-16.5-3.4l-8.5,0.7l-8.5,1.9l-4.7-2.6l-7.2,0.4l-2.5-19.8
		c0,0,8-3.4,17.3-2.2c0,0,36.9-11.7,49.8-34.1c0.3-0.6,0.7-1.2,1-1.8c0,0,8.9-1.9,25,4.1c0,0,16.1-2.2,40.6-7.5
		c0,0,16.9-2.2,27.1,7.1l15.7-0.4c0,0-6.3-21.7,14-30.6c0,0,10.2-4.5,8-30.3c0,0,28.3-25.4,26.2-4.1c0,0-15.7,7.5-8.9,20.2
		c0,0,46.1-14.6,50.8-35.9l17.8-7.8c0,0-1.7-6.4,11.8-34c13.5-27.7-0.4-31.4-0.4-31.4s7.2-6.7,0.4-28c0,0,3.4-5.2,9.7-3.4
		c0,0,0.8-31.8,15.7-8.2l10.6,0.4v-5.6L376.8,151.8z"/>
	<path class="st0" d="M99.7,419.8c0,0,8.9,4.9,19.5-16.1c0,0,10.2-2.6,17.3,2.6c0,0,12.3,2.6,15.7-10.5c0,0,14-6.7,24.1,0l9.7,5.2
		V416l-7.6,9l-11.4,7.5l-3.4,3.7l-4.2-2.2l-2.1-4.1l-14.4,0.7l-9.7,1.5l-0.8,8.6l-3.4,3.7l-1.7,7.5l-4.7,4.1l-6.3-2.2l-7.2-7.1
		l-5.5-7.1l-0.4-4.9v-3.4l-3.4-5.2V419.8z"/>
	<path class="st0" d="M56.5,414.2c0,0,33.8,5.6,33.4,10.3c0,0-9.7,12.1-1.7,18.9c0,0,3.4,3.4-13.1,16.4c0,0-11.8,17.2-8,34
		l-10.6,10.8l-4.2-1.5c0,0-6.8,10.8-18.2,8.6c0,0,8.9-17.9-2.1-22c0,0-8.9,0,0,14.2l-18.6,0.4c0,0,6.8-3.7,5.5-33.3
		c0,0,12-2.4,11.9-21.7c0-0.8,0-1.7-0.1-2.6c-1.3-21.7-25.4-9-25.4-9l-5.1-13.3c0,0-4.2-7.7,24.5-10.3l8.5-4.1l9.3-4.9l9.7,4.9
		L56.5,414.2z"/>
</g>
<g id="图层_2">
	<path class="st0" d="M492.1,28.7c0,0-10.8,14-19,17.9c0,0,1.9-7.3-18.4-5.6c0,0-29.2-11.8-31.1-19.6c0,0-27.9-32.5-36.2-17.4
		c0,0,13.3,30.3,0,40.4V59l-5.1,5.6v5.6v5l-5.7,2.8c0,0-19.7-10.1-20.3,12.3c0,0-18.4,13.5-15.2,28.6c0,0,19.7,5.6,9.5,11.8
		l-1.9,8.4l3.8,5h6.3l9.5-6.2l5.7-6.2l7,1.7l5.7-1.1l0.6-6.2l-6.3-2.8l-3.8-2.8l-7-1.1l-7-0.6c0,0-9.5-26.3,16.5-6.2
		c0,0,1.3-28.6,69.2,7.8c0,0-5.1-16.3,22.2-35.3l8.3,0.6c0,0,9.5-14,18.4-10.1c0,0,19.7-3.9,12.7-11.2c0,0-15.9-0.6-10.2-10.7
		c0,0-8.3-2.8-3.2-11.2C497.2,42.7,501,28.1,492.1,28.7z"/>
</g>
</svg>
