<svg id="图层_1" data-name="图层 1" xmlns="http://www.w3.org/2000/svg" viewBox="0 0 477.43 377.4"><defs><style>.cls-1{fill:none;stroke:#48b134;stroke-miterlimit:10;stroke-width:11px;}</style></defs><title>国内定制</title><g id="图层_2" data-name="图层 2"><path class="cls-1" d="M452.22,51.56s22.85-29.73,22.53,0c0,0,9.46,13.43-17.63,24.5,0,0-1.31,11.1,5.23,15,0,0,4.56,23.84-10.13,15.67,0,0-4.24,5.87-8.82,5.22,0,0,6.86,14.7-9.79,8.16,0,0-15,24.83-30.37,26.78,0,0-14.69,20.24-5.55-12.41,0,0-4.24-9.14-18.28,15,0,0-19.92,4.25-11.76,9.8,0,0-4.57,11.43,7.18,6.85,0,0,5.53,17.19,12.74,1.09l20.24.55-.65,6.34h-7.84s-2.61,8.35-9.14,7c0,0,2.61,13.42-3.91,15,0,0,12.4,7.18,12.07,18,0,0,22.86,6.2,13.06,49.95,0,0-14,47.35-37.87,48.65,0,0,9.79,12.74-56.81,26.13,0,0-7.51,25.47-13.07,1.3,0,0-44.12,3.93-23.18-12.41,0,0-11.76-13.05-24.49-1.63,0,0-13.43,11.11-27.1,1.63,0,0,13.42,30-11.43,9.15,0,0-18.29-1.31-17.31-25.47,0,0-17,2.62-3.91-15.67,0,0,25.14-38.86-24.49-25.8,0,0-25.8,22.21-38.53-2.94s-15.35,4.57-15.35,4.57-15-18.93-26.8-12.41c0,0-9.79-12.73-15.67-11.42,0,0,3.92-7.51-18.28-19.6,0,0-20.9,3.27-18-31.65l2.62-10.12-5.55-3.6,1.63-9.14L31,168.16v-7.51l-10.44-4.9,5.55-9.14s-32.33-19.92-5.55-33.31,18.93-1,18.93-1l15-4.9,10.78.33S86.16,95,81.92,82,96.64,77.4,96.64,77.4L99.24,80l6.86-19.92,16.62,4.21,5.22-.65.65-8.16s16.66-17.27,23.84,5.88c0,0,13.43.32,15.67,22.85l-3.87,10.45s30-9.47,44.4,27.1-.33,1.92-.33,1.92,28.78-5.55,38.86,11.43l15.68,1,18.61-7.51,20.9-3.27,11.42-11.09-2.61-9.15,1.63-5.22,8.17,2.61,2.28-2.29,6.2-4.9,13.07-2.51S342.18,79.32,369,77.08c0,0-.65-18.95-16.3-6.21l-3.57-4.61L344.5,69.2l-4.89,2.29L336,68.55l1.92-4.9L339.57,61l.66-7.18,4.23-1.92,4.25-3.26,5.22-2.61,2.29-4.58L359.49,35l4.93-8.86-1.3-4.24-2-4.88s23.5-18,39.18-3.6S410.75,27.1,410.75,27.1l2.29.95,3.27,6.86,6.52,4.25H429l8.82,7.55,2.94,8.49,6.21.33Z" transform="translate(-4.42 -2.31)"/><path class="cls-1" d="M420.87,291.57s-16-1.32-16.65,18.6,7.2,20.58,10.08,16.62,6.53-21.56,6.53-21.56V291.57Z" transform="translate(-4.42 -2.31)"/><path class="cls-1" d="M319,357.84s-14.7-7.83-24.81,8.82C294.19,366.66,301,388.54,319,357.84Z" transform="translate(-4.42 -2.31)"/></g></svg>