<svg id="图层_1" data-name="图层 1" xmlns="http://www.w3.org/2000/svg" viewBox="0 0 427.53 382.06"><defs><style>.cls-1{fill:#fff;}.cls-2{fill:#41bc00;}</style></defs><title>国内外合作</title><path class="cls-1" d="M115.11,0H310.88a18.08,18.08,0,0,1-2.6.68c-27.5,2.53-50.5,14.16-69.85,33.81-26,26.41-52.31,52.5-78.52,78.69-8.1,8.1-16.32,16.08-24.87,24.5,3.59,3.06,6.52,5.82,9.72,8.24,19.46,14.64,46.5,15.49,66.1,1.05,8.63-6.37,15.93-14.58,23.65-22.14,6.87-6.73,13.47-13.72,21.29-21.72,1.14,1.88,1.69,3.33,2.69,4.34q43.25,43.43,86.57,86.78C355.46,204.68,366,215,375.94,225.9c7.51,8.22,6.88,20.55-.49,28.56a21.79,21.79,0,0,1-28.77,3.19,39,39,0,0,0-3.64-2,19.19,19.19,0,0,0-2.22-3.41Q293.3,204.55,245.69,157c-.89-.88-1.86-1.67-2.95-2.65l-5.68,6a14.29,14.29,0,0,0,1,1.32q33.7,33.81,67.43,67.6,16,16,32.18,32c5,6.17,7.8,13,5.7,21-4.51,17.18-24.51,22.27-37.37,9.45q-40.63-40.52-81.09-81.2c-5.58-5.6-11-11.34-16.23-16.7L201.77,200c9.68,9.62,19.23,19.06,28.73,28.55q35,35,70,70.1A21.69,21.69,0,0,1,291.14,335c-8.08,2.38-15.11.15-21.52-5.29l-6.27,5.73c8.45,11.25,8.6,21.57.67,30.59a20.67,20.67,0,0,1-12.06,6.7c-7.43,1.41-13.8-1-19.3-5.66l-6.19,5.6c4.38,5.59,10.61,7,16.31,9.29h-50.9a41.32,41.32,0,0,0,20.75-11.52c8.89-9.21,18.09-18.11,27-27.25,7.57-7.73,15.67-15.07,22.29-23.56,11.56-14.82,6.32-36.06-10.23-44.94-6.72-3.6-13.88-3.93-21.68-2.71,2-11.09-.06-20.83-7.85-28.81S204.36,233,193,234.76c1.69-11.16-.17-21-8.1-28.9s-17.81-10.23-28.88-8.14a14.28,14.28,0,0,1,0-1.85c3.33-18.92-9.94-35.49-29.07-36.07-6.65-.2-13.63.92-18.5,5.22-9.76,8.63-18.62,18.27-27.77,27.58-5.08,5.19-10,10.54-15.47,16.32-11.82-12.39-23.92-23.18-33.75-35.74C6.09,140.64,1.07,104.5,18.63,66.93,35.11,31.71,64,12.39,102.73,9.39c28.58-2.21,53.67,7,74.82,26.53,5.15,4.77,10.23,9.63,15.51,14.61l6-6.36c-3.69-3.55-7.38-7-11-10.6C174.21,19.85,158.24,9.51,139.25,4.51,131.36,2.44,123.17,1.47,115.11,0Z"/><path class="cls-1" d="M325,0H427.53V382H252.15a18.79,18.79,0,0,1,2.19-.74,30.11,30.11,0,0,0,23.87-26.68c.32-3.34.05-6.73.05-10.54,10.73,1.78,20.6-.31,28.57-8.4s9.85-17.95,8-28.94c11.35,2.08,21-.23,28.94-8.12s9.87-17.93,8.26-28.88c1.34.11,2.12.15,2.88.24,13.06,1.56,23.48-3.05,30.35-14.22s6.23-22.45-1-33.14c-3.11-4.59-7.17-8.53-11.76-13.89a16.33,16.33,0,0,0,3.57-2.14c7.8-7.88,15.78-15.61,23.2-23.84,22-24.42,31.14-53.66,27-85.8-6.12-46.71-32.85-77.54-77.64-92.14C341,2.29,332.87,1.55,325,0Z"/><path class="cls-1" d="M184,382H0V120A34.1,34.1,0,0,1,1,123.71C3.18,140.13,8,155.8,17.85,169.13c7.94,10.76,17.36,20.44,26.39,30.35,4.6,5.07,9.79,9.61,14.79,14.45-11.67,11.23-16.56,23.82-10,38.4S68.2,272,84,269.78c-1.83,11.36.36,21.08,8.33,29s17.89,9.9,28.91,8c-2.09,11.43.27,21.14,8.12,29.07s17.88,9.93,28.81,8.17a18.38,18.38,0,0,1-.14,2.55c-1.67,10.76,1.6,19.8,9.31,27.36C172.05,378.52,178,380.41,184,382Z"/><path class="cls-2" d="M184,382c-6.06-1.62-12-3.51-16.63-8.07-7.71-7.56-11-16.6-9.31-27.36.1-.63.08-1.29.14-2.55-10.93,1.76-20.89-.15-28.81-8.17s-10.21-17.64-8.12-29.07c-11,1.87-20.89-.08-28.91-8s-10.16-17.62-8.33-29c-15.85,2.22-28.4-2.75-35-17.45s-1.69-27.17,10-38.4c-5-4.84-10.19-9.38-14.79-14.45-9-9.91-18.45-19.59-26.39-30.35C8,155.8,3.2,140.13,1,123.71A34.1,34.1,0,0,0,0,120V99.63a20.09,20.09,0,0,0,.8-2.95A109,109,0,0,1,84.55,3.15c5.94-1.37,12-2.12,18-3.15h12.53c8.06,1.47,16.25,2.44,24.14,4.51,19,5,35,15.34,48.87,29.06,3.6,3.56,7.29,7,11,10.6l-6,6.36c-5.28-5-10.36-9.84-15.51-14.61C156.43,16.36,131.34,7.18,102.76,9.39c-38.78,3-67.62,22.32-84.1,57.54C1.07,104.5,6.09,140.64,31.54,173.18c9.83,12.56,21.93,23.35,33.75,35.74,5.47-5.78,10.39-11.13,15.47-16.32,9.15-9.31,18-18.95,27.77-27.58,4.87-4.3,11.85-5.42,18.5-5.22,19.13.58,32.4,17.15,29.07,36.07a14.28,14.28,0,0,0,0,1.85c11.07-2.09,20.88.18,28.88,8.14s9.79,17.74,8.1,28.9c11.37-1.77,21.24.32,29.17,8.44s9.85,17.72,7.85,28.81c7.8-1.22,15-.89,21.68,2.71,16.55,8.88,21.79,30.12,10.23,44.94-6.62,8.49-14.72,15.83-22.29,23.56-8.95,9.14-18.15,18-27,27.25A41.31,41.31,0,0,1,191.85,382Zm75.31-80.17A21.5,21.5,0,0,0,246.63,282c-8.06-3.57-16.25-3.13-22.64,3-17.72,17.12-35.05,34.64-52.35,52.17-4.31,4.37-5.91,10.13-5.23,16.26,1,8.8,5.7,15.13,13.89,18.3,8.9,3.43,17,1.26,23.73-5.32q24.38-24,48.4-48.44c4.32-4.4,7-9.71,6.9-16.11ZM125.87,168.43c-6.74,0-12,3.12-16.53,7.73-5,5.11-10.13,10.16-15.18,15.26C82.7,203,71,214.32,59.89,226.29c-8.23,8.91-6.14,23.55,3.57,30.86,9.52,7.17,21.21,5.8,30.6-3.6,6.08-6.09,12.18-12.16,18.24-18.28C122.57,224.89,133.12,214.76,143,204c6.18-6.76,6.8-15.15,2.74-23.4S134.8,168.66,125.87,168.43Zm22.36,167.45c8.84.32,14.29-2.35,18.92-7q15.06-15.12,30.14-30.23c6.81-6.85,13.91-13.45,20.22-20.74,7.17-8.27,6.17-20.9-1.48-28.53-8.11-8.1-20.47-8.92-29.1-1.75-3.21,2.66-6.15,5.64-9.09,8.6-14.45,14.55-29,29-43.2,43.76-6.3,6.56-7.26,14.75-3.6,23S141.32,335.51,148.23,335.88ZM92.08,278.56c.32,7.64,4.46,14.58,13.07,18.37s16.72,2.34,23.53-4c7.44-6.93,14.5-14.27,21.67-21.49,9.93-10,20.08-19.77,29.61-30.13,7.57-8.23,6.73-21.34-1-29.15-8.12-8.19-20.76-9-29.37-1.48-5.59,4.88-10.73,10.28-16,15.54q-17.57,17.57-35,35.24C94.33,265.71,92.07,270.83,92.08,278.56Z"/><path class="cls-2" d="M325,0c7.89,1.55,16,2.29,23.64,4.77,44.8,14.6,71.53,45.43,77.63,92.17,4.18,32.14-4.93,61.38-27,85.8-7.42,8.23-15.4,16-23.2,23.84a16.33,16.33,0,0,1-3.57,2.14c4.59,5.36,8.65,9.3,11.76,13.89,7.25,10.69,7.82,22.09,1,33.14S368,271.53,355,270c-.76-.09-1.54-.13-2.88-.24,1.61,10.95-.21,20.9-8.26,28.88s-17.59,10.2-28.94,8.12c1.81,11-.11,20.89-8,28.94S289,345.88,278.3,344.1c0,3.81.27,7.2-.05,10.54a30.11,30.11,0,0,1-23.87,26.68,18.79,18.79,0,0,0-2.19.74h-9.4c-5.7-2.32-11.93-3.7-16.31-9.29l6.19-5.6c5.5,4.65,11.87,7.07,19.3,5.66a20.67,20.67,0,0,0,12.06-6.7c7.93-9,7.78-19.34-.67-30.59l6.27-5.73c6.41,5.44,13.44,7.67,21.52,5.29a21.7,21.7,0,0,0,9.36-36.38q-34.89-35.14-70-70.1c-9.5-9.49-19-18.93-28.73-28.55l6.91-6.32c5.21,5.36,10.65,11.1,16.23,16.7q40.5,40.65,81.09,81.2c12.86,12.82,32.86,7.73,37.37-9.45,2.1-8-.73-14.84-5.7-21l5.37-5.53a39,39,0,0,1,3.64,2,21.79,21.79,0,0,0,28.77-3.19c7.37-8,8-20.34.49-28.56C366,215,355.47,204.7,345.07,194.25q-43.24-43.42-86.57-86.78c-1-1-1.55-2.46-2.69-4.34-7.82,8-14.42,15-21.29,21.72-7.72,7.56-15,15.77-23.65,22.14-19.6,14.44-46.64,13.59-66.1-1.05-3.2-2.42-6.13-5.18-9.72-8.24,8.55-8.42,16.77-16.4,24.87-24.5,26.2-26.2,52.52-52.3,78.51-78.71C257.78,14.84,280.78,3.21,308.28.68a18.08,18.08,0,0,0,2.6-.68Zm41.56,203.76c7.39-7.43,14.24-14.23,21-21.13,23.62-24.14,34.65-52.92,29.82-86.61-5.46-38.13-26.51-65.62-62.1-79.56C314.63.55,277.48,8.84,246.13,39.33c-28.91,28.12-57.08,57-85.6,85.5-4.13,4.13-8.42,8.09-12.89,12.36,2.08,1.52,3.29,2.49,4.59,3.34,19.8,12.92,44.48,10.08,61.49-7q18.92-19,37.91-38c3.43-3.43,3.81-3.4,7.22,0q42.19,42.26,84.37,84.54C350.91,187.86,358.57,195.68,366.54,203.76Z"/><path class="cls-1" d="M102.63,0c-6,1-12.09,1.78-18,3.15A109,109,0,0,0,.8,96.68,20.09,20.09,0,0,1,0,99.63V0Z"/><path class="cls-2" d="M343,255.63l-5.41,5.53-32.18-32Q271.7,195.4,238,161.56a14.29,14.29,0,0,1-1-1.32l5.68-6c1.09,1,2.06,1.77,3,2.65q47.58,47.61,95.13,95.27A18.46,18.46,0,0,1,343,255.63Z"/><path class="cls-1" d="M259.33,301.86c.09,6.4-2.58,11.71-6.93,16.1Q228.31,342.29,204,366.4c-6.68,6.58-14.83,8.75-23.73,5.32-8.19-3.17-12.9-9.5-13.89-18.3-.68-6.13.92-11.89,5.23-16.26,17.3-17.53,34.63-35.05,52.35-52.17,6.39-6.17,14.58-6.61,22.64-3A21.49,21.49,0,0,1,259.33,301.86Z"/><path class="cls-1" d="M125.87,168.43c8.93.23,15.85,4,19.84,12.15s3.44,16.64-2.74,23.4c-9.85,10.78-20.4,20.91-30.67,31.29-6.06,6.12-12.16,12.19-18.24,18.28-9.39,9.4-21.08,10.77-30.6,3.6-9.71-7.31-11.8-21.95-3.57-30.86C71,214.29,82.7,203,94.16,191.42c5-5.1,10.14-10.15,15.18-15.26C113.9,171.55,119.13,168.41,125.87,168.43Z"/><path class="cls-1" d="M148.23,335.88c-6.91-.37-13.56-4.77-17.19-12.94s-2.7-16.4,3.6-23c14.19-14.78,28.75-29.21,43.2-43.76a120.75,120.75,0,0,1,9.09-8.6c8.63-7.17,21-6.35,29.1,1.75,7.65,7.63,8.65,20.26,1.48,28.53-6.31,7.29-13.41,13.89-20.22,20.74q-15,15.15-30.14,30.23C162.52,333.53,157.07,336.2,148.23,335.88Z"/><path class="cls-1" d="M92.08,278.56c0-7.73,2.25-12.85,6.48-17.11q17.47-17.65,35-35.24c5.25-5.26,10.39-10.66,16-15.54,8.61-7.53,21.25-6.71,29.37,1.48,7.75,7.81,8.59,20.92,1,29.15-9.53,10.36-19.68,20.14-29.61,30.13-7.17,7.22-14.23,14.56-21.67,21.49-6.81,6.35-14.92,7.8-23.53,4S92.4,286.2,92.08,278.56Z"/><path class="cls-1" d="M366.54,203.76c-8-8.08-15.63-15.9-23.35-23.65Q301,137.81,258.82,95.57c-3.41-3.42-3.79-3.45-7.22,0q-19,19-37.88,38c-17,17.11-41.69,20-61.49,7-1.3-.85-2.51-1.82-4.59-3.34,4.47-4.27,8.76-8.23,12.89-12.36,28.52-28.51,56.69-57.38,85.6-85.5C277.48,8.84,314.63.55,355.25,16.46,390.84,30.4,411.89,57.89,417.35,96c4.83,33.69-6.2,62.47-29.82,86.61C380.78,189.53,373.93,196.33,366.54,203.76Z"/></svg>