<svg id="图层_1" data-name="图层 1" xmlns="http://www.w3.org/2000/svg" viewBox="0 0 837.93 835.13"><defs><style>.cls-1{fill:none;stroke:#48b134;stroke-miterlimit:10;stroke-width:16px;}</style></defs><title>日本进口</title><g id="Capa_1" data-name="Capa 1"><path class="cls-1" d="M609.43,249.48s-4.74-26.31,18.27-22.72S640.57,262,640.57,262s7.44,20.32,20.31,32.87,19.62,48.43,19.62,48.43l-21,37.06s21,35.27-25.72,28.1l-3.39,7.78,8.8,26.3s10.16,10.77-18.27,60.4l10.15-5.38v7.77l-8.79,9.56-3.39,18.54s29.78,23.91-2.71,29.89c0,0,2.71,58.58-57.54,21.52l-10.84,17.93s2.71,15.55-30.46,15.55c0,0-77.83,4.18-96.12-3.59V599.23s-49.41,13.8,25.05,42.46c0,0,17.6,26.89-48.06,13.15,0,0-21.67,10.76-26.4,25.1s-22.34,11.36-22.34,11.36l-21-11.95-7.45-26.3s10.16-25.72,21.68-24.52-41.29-25.71-64.31-11.36-52.8,25.11-92.74,22.72c0,0-16.92,0-18.95,18.54,0,0-.68,16.13-26.4-5.38l-13.54,1.19-13.53,3L105.82,653l-11.51.59-4.06-31.69A60.88,60.88,0,0,1,118,618.34s59.12-18.72,79.67-54.5c.55-1,1.07-2,1.56-2.89,0,0,14.21-3,39.94,6.57,0,0,25.72-3.59,65-11.95,0,0,27.08-3.59,43.35,11.36l25-.6s-10.16-34.68,22.33-49c0,0,16.25-7.17,12.86-48.42,0,0,45.32-40.65,42-6.57,0,0-25,11.95-14.21,32.27,0,0,73.78-23.31,81.23-57.39l28.42-12.55s-2.7-10.17,19-54.4-.68-50.25-.68-50.25,11.51-10.77.68-44.84c0,0,5.42-8.37,15.56-5.39,0,0,1.36-50.81,25-13.15l16.93.6v-9Z" transform="translate(4.21 1.38)"/><path class="cls-1" d="M166.06,678.14s14.22,7.79,31.14-25.7c0,0,16.24-4.19,27.75,4.18,0,0,19.64,4.18,25.05-16.75,0,0,22.34-10.76,38.58,0l15.57,8.37v23.9L292,686.52l-18.28,12-5.42,6-6.77-3.59-3.38-6.57-23,1.19-15.57,2.39-1.36,13.8-5.41,6-2.68,11.91-7.47,6.62-10.16-3.59L181,721.23l-8.8-11.36-.67-7.77v-5.43l-5.42-8.36Z" transform="translate(4.21 1.38)"/><path class="cls-1" d="M97,669.18s54.19,9,53.48,16.45c0,0-15.57,19.43-2.71,30.19,0,0,5.42,5.38-21,26.3,0,0-19,27.5-12.81,54.41L97.07,813.87l-6.77-2.4s-10.84,17.34-29.1,13.8c0,0,14.21-28.7-3.39-35.29,0,0-14.21,0,0,22.72L28,813.3s10.84-6,8.8-53.2c0,0,19.27-3.84,19.1-34.67,0-1.34-.05-2.74-.14-4.19-2.08-34.72-40.66-14.4-40.66-14.4L7,685.62S.24,673.36,46.25,669.18l13.54-6.58,14.89-7.76,15.57,7.76Z" transform="translate(4.21 1.38)"/></g><g id="图层_2" data-name="图层 2"><path class="cls-1" d="M793.88,52.5S776.6,74.92,763.42,81.2c0,0,3.05-11.66-29.44-9,0,0-46.71-18.84-49.75-31.39,0,0-44.67-52-57.87-27.8,0,0,21.32,48.42,0,64.57v23.31l-8.13,9v17l-9.12,4.49s-31.52-16.14-32.51,19.7c0,0-29.45,21.53-24.36,45.73,0,0,31.52,9,15.23,18.84l-3.06,13.45,6.1,8.07h10.15l15.23-9.85,9.14-9.85,11.17,2.68,9.14-1.79,1-9.85-10.16-4.48-6.07-4.5-11.17-1.8-11.17-.9s-15.23-42.14,26.4-9.85c0,0,2-45.73,110.67,12.56,0,0-8.12-26,35.54-56.5l13.2.9S788.8,121.56,803,127.84c0,0,31.47-6.28,20.3-17.94,0,0-25.39-.9-16.24-17,0,0-13.21-4.48-5.08-17.93C802,74.92,808.13,51.6,793.88,52.5Z" transform="translate(4.21 1.38)"/></g></svg>